<?xml version="1.0" encoding="UTF-8" standalone="no"?>
<!DOCTYPE svg PUBLIC "-//W3C//DTD SVG 1.1//EN" "http://www.w3.org/Graphics/SVG/1.1/DTD/svg11.dtd">
<svg width="100%" height="100%" viewBox="0 0 100 100" version="1.1" xmlns="http://www.w3.org/2000/svg" xmlns:xlink="http://www.w3.org/1999/xlink" xml:space="preserve" xmlns:serif="http://www.serif.com/" style="fill-rule:evenodd;clip-rule:evenodd;stroke-linecap:round;stroke-linejoin:round;stroke-miterlimit:1.5;">
    <circle cx="50" cy="50" r="50" style="fill:rgb(216,171,99);" />
    <path d="M51,8C59,8.333 66.847,13.529 74,18C82,23 85.544,26.455 89,32C92.456,37.545 94.981,49.824 92,59C89.019,68.176 88.227,72.934 81,79C73.773,85.066 65.876,93.165 52,93C38.124,92.835 33.269,88.519 27,83C20.731,77.481 13.666,74.368 11,64C8.334,53.632 8.665,45.461 12,37C15.335,28.539 17.451,23.452 24,18C30.549,12.548 43,7.667 51,8Z" style="fill:rgb(255,218,121);" />
    <g transform="matrix(0.722222,0,0,0.722222,8.72222,-1.05556)">
        <circle cx="44" cy="34" r="9" style="fill:rgb(137,29,10);" />
    </g>
    <g transform="matrix(0.722222,0,0,0.722222,34.7222,4.94444)">
        <circle cx="44" cy="34" r="9" style="fill:rgb(137,29,10);" />
    </g>
    <g transform="matrix(0.722222,0,0,0.722222,18.7222,22.9444)">
        <circle cx="44" cy="34" r="9" style="fill:rgb(137,29,10);" />
    </g>
    <g transform="matrix(0.722222,0,0,0.722222,-7.27778,17.9444)">
        <circle cx="44" cy="34" r="9" style="fill:rgb(137,29,10);" />
    </g>
    <g transform="matrix(0.722222,0,0,0.722222,-4.27778,40.9444)">
        <circle cx="44" cy="34" r="9" style="fill:rgb(137,29,10);" />
    </g>
    <g transform="matrix(0.722222,0,0,0.722222,16.7222,55.9444)">
        <circle cx="44" cy="34" r="9" style="fill:rgb(137,29,10);" />
    </g>
    <g transform="matrix(0.722222,0,0,0.722222,43.7222,36.9444)">
        <circle cx="44" cy="34" r="9" style="fill:rgb(137,29,10);" />
    </g>
    <g transform="matrix(1,0,0,1,0.423987,3.88002)">
        <path d="M65,46C64.833,47 67.313,50.843 69,50C71.333,48.833 76.167,41.333 79,39C80.96,37.386 85.5,37.167 86,36C86.5,34.833 83.687,31.157 82,32C79.333,33.333 72.833,41.667 70,44C68.614,45.141 65.167,45 65,46Z" style="fill:rgb(32,128,25);" />
    </g>
    <g transform="matrix(0.214723,0.976675,-0.976675,0.214723,81.2763,-12.3606)">
        <path d="M65,46C64.833,47 67.313,50.843 69,50C71.333,48.833 77.207,42.316 79,39C80.415,36.382 80.028,31.333 79.757,30.104C79.554,29.183 77.916,30.856 77.374,31.628C75.748,33.944 72.062,41.605 70,44C68.829,45.36 65.167,45 65,46Z" style="fill:rgb(32,128,25);" />
    </g>
    <g transform="matrix(0.50394,0.561123,-0.562148,0.504861,20.5551,-7.13886)">
        <path d="M65.644,49.361C65.477,50.361 68.1,50.698 69,50C71.226,48.273 76.902,42.06 79,39C80.471,36.854 81.862,32.866 81.591,31.637C81.32,30.408 78.335,30.603 77.374,31.628C75.442,33.689 71.955,41.044 70,44C68.73,45.921 65.81,48.361 65.644,49.361Z" style="fill:rgb(32,128,25);" />
    </g>
    <g transform="matrix(0.50394,0.561123,-0.562148,0.504861,26.8588,-28.2701)">
        <path d="M65.644,49.361C65.477,50.361 68.1,50.698 69,50C71.226,48.273 75.285,42.037 79,39C82.679,35.993 91.116,32.882 91.292,31.779C91.468,30.676 83.31,30.514 80.058,32.381C76.509,34.418 72.402,41.17 70,44C68.51,45.755 65.81,48.361 65.644,49.361Z" style="fill:rgb(32,128,25);" />
    </g>
    <g transform="matrix(-0.091316,0.748649,-0.750017,-0.0914829,89.7747,-37.7267)">
        <path d="M72.027,44.663C72.599,45.704 75.051,46.377 76.136,45.496C77.298,44.552 77.245,40.588 79,39C81.526,36.714 91.116,32.882 91.292,31.779C91.468,30.676 83.156,31.136 80.058,32.381C76.959,33.626 74.039,37.201 72.701,39.248C71.705,40.77 71.454,43.622 72.027,44.663Z" style="fill:rgb(32,128,25);" />
    </g>
    <g transform="matrix(-0.744802,-0.118675,0.118892,-0.746163,122.723,117.153)">
        <path d="M72.027,44.663C72.599,45.704 75.051,46.377 76.136,45.496C77.298,44.552 77.245,40.588 79,39C81.526,36.714 91.116,32.882 91.292,31.779C91.468,30.676 83.156,31.136 80.058,32.381C76.959,33.626 74.039,37.201 72.701,39.248C71.705,40.77 71.454,43.622 72.027,44.663Z" style="fill:rgb(242,243,198);" />
    </g>
    <g transform="matrix(-0.744802,-0.118675,0.118892,-0.746163,93.2243,108.741)">
        <path d="M76.407,47.809C76.9,48.435 77.938,46.953 78.163,46.19C78.595,44.722 77.375,40.784 79,39C81.188,36.598 90.763,32.698 91.292,31.779C91.822,30.861 85.046,32.337 82.177,33.49C79.079,34.734 73.662,36.861 72.701,39.248C71.739,41.634 75.497,46.652 76.407,47.809Z" style="fill:rgb(242,243,198);" />
    </g>
    <g transform="matrix(-0.744802,-0.118675,0.118892,-0.746163,89.9465,83.1965)">
        <path d="M67.61,37.087C67.753,37.982 74.382,43.064 76.686,43.479C78.702,43.843 79.835,40.859 81.434,39.579C83.868,37.629 91.168,32.794 91.292,31.779C91.416,30.764 84.755,32.435 82.177,33.49C79.756,34.48 78.256,37.507 75.828,38.106C73.4,38.706 67.467,36.191 67.61,37.087Z" style="fill:rgb(242,243,198);" />
    </g>
    <g transform="matrix(-0.19936,-0.727372,0.728701,-0.199724,53.6814,107.116)">
        <path d="M68.846,44.832C68.989,45.728 74.588,44.355 76.686,43.479C78.576,42.69 79.835,40.859 81.434,39.579C83.868,37.629 91.168,32.794 91.292,31.779C91.416,30.764 84.755,32.435 82.177,33.49C79.756,34.48 77.821,36.411 75.828,38.106C73.606,39.997 68.703,43.937 68.846,44.832Z" style="fill:rgb(242,243,198);" />
    </g>
    <g transform="matrix(1,0,0,1,0,4.02598)">
        <circle cx="26.487" cy="23.487" r="2.487" style="fill:none;stroke:black;stroke-width:2px;" />
    </g>
    <g transform="matrix(1,0,0,1,24.5015,4.02598)">
        <circle cx="26.487" cy="23.487" r="2.487" style="fill:none;stroke:black;stroke-width:2px;" />
    </g>
    <g transform="matrix(1,0,0,1,-6,31.2444)">
        <circle cx="26.487" cy="23.487" r="2.487" style="fill:none;stroke:black;stroke-width:2px;" />
    </g>
    <g transform="matrix(1,0,0,1,36.442,40)">
        <circle cx="26.487" cy="23.487" r="2.487" style="fill:none;stroke:black;stroke-width:2px;" />
    </g>
    <g transform="matrix(1,0,0,1,56,26.2704)">
        <circle cx="26.487" cy="23.487" r="2.487" style="fill:none;stroke:black;stroke-width:2px;" />
    </g>
    <g transform="matrix(1,0,0,1,11,56.1527)">
        <circle cx="26.487" cy="23.487" r="2.487" style="fill:none;stroke:black;stroke-width:2px;" />
    </g>
    <g transform="matrix(1,0,0,1,15.974,34.9548)">
        <circle cx="26.487" cy="23.487" r="2.487" style="fill:none;stroke:black;stroke-width:2px;" />
    </g>
    <g transform="matrix(1,0,0,1,34.4985,20.574)">
        <circle cx="26.487" cy="23.487" r="2.487" style="fill:none;stroke:black;stroke-width:2px;" />
    </g>
    <g transform="matrix(1,0,0,1,53.026,6.71809)">
        <circle cx="26.487" cy="23.487" r="2.487" style="fill:none;stroke:black;stroke-width:2px;" />
    </g>
    <g transform="matrix(1.88558,-0.000284078,0.000307675,2.0422,-54.6382,-34.7092)">
        <path d="M55.487,17L55.487,41.487L55.487,17ZM42.231,20.281L55.487,41.487L42.231,20.281ZM32.526,29.244L55.487,41.487L32.526,29.244ZM28.974,41.487L55.487,41.487L28.974,41.487ZM32.526,53.731L55.487,41.487L32.526,53.731ZM42.231,62.693L55.487,41.487L42.231,62.693ZM55.487,65.974L55.487,41.487L55.487,65.974ZM68.744,62.693L55.487,41.487L68.744,62.693ZM78.448,53.731L55.487,41.487L78.448,53.731ZM82,41.487L55.487,41.487L82,41.487ZM78.448,29.244L55.487,41.487L78.448,29.244ZM68.744,20.281L55.487,41.487L68.744,20.281Z" style="fill:none;stroke:black;stroke-opacity:0.2;stroke-width:1.02px;stroke-linecap:butt;" />
    </g>
</svg>