<?xml version="1.0" encoding="UTF-8" standalone="no"?>
<!DOCTYPE svg PUBLIC "-//W3C//DTD SVG 1.1//EN" "http://www.w3.org/Graphics/SVG/1.1/DTD/svg11.dtd">
<svg width="100%" height="100%" viewBox="0 0 365 128" version="1.1" xmlns="http://www.w3.org/2000/svg" xmlns:xlink="http://www.w3.org/1999/xlink" xml:space="preserve" xmlns:serif="http://www.serif.com/" style="fill-rule:evenodd;clip-rule:evenodd;stroke-linejoin:round;stroke-miterlimit:2;">
    <g transform="matrix(1,0,0,1,-119.609,-43.8823)">
        <path fill="rgb(190, 18, 60)" d="M121.846,57.431C133.606,69.646 145.605,84.368 160.324,93.387C242.166,143.535 382.516,135.865 474.762,129.849C479.168,129.562 482.511,125.751 482.224,121.345C481.937,116.939 478.126,113.596 473.72,113.883C384.274,119.716 248.042,128.371 168.683,79.745C155.097,71.42 144.228,57.61 133.373,46.334C130.311,43.153 125.242,43.057 122.061,46.119C118.88,49.181 118.784,54.25 121.846,57.431Z" />
    </g>
    <g transform="matrix(1,0,0,1,-119.609,-43.8823)">
        <path fill="rgb(190, 18, 60)" d="M465.052,126.085C460.614,131.201 454.736,136.075 450.05,139.961C449.077,140.768 448.055,141.514 447.096,142.336C444.223,144.799 441.414,148.233 438.469,151.441C436.595,153.482 434.753,155.532 432.494,156.442C428.399,158.094 426.415,162.759 428.066,166.854C429.717,170.949 434.382,172.933 438.477,171.282C442.049,169.841 445.353,167.293 448.395,164.219C451.59,160.991 454.472,157.088 457.509,154.485C458.402,153.719 459.358,153.028 460.264,152.277C467.364,146.389 476.584,138.389 481.763,130.523C482.103,130.006 483.887,126.072 484.113,125.234C485.808,118.965 480.761,116.24 479.628,115.739C477.106,114.627 475.855,114.655 473.654,112.109C464.402,101.404 453.704,91.637 443.687,81.62C440.565,78.498 435.495,78.498 432.373,81.62C429.251,84.742 429.251,89.812 432.373,92.934C442.118,102.679 452.548,112.157 461.548,122.571C462.871,124.102 463.992,125.217 465.052,126.085Z" />
    </g>
</svg>