<?xml version="1.0" encoding="UTF-8" standalone="no"?>
<!DOCTYPE svg PUBLIC "-//W3C//DTD SVG 1.1//EN" "http://www.w3.org/Graphics/SVG/1.1/DTD/svg11.dtd">
<svg width="100%" height="100%" viewBox="0 0 200 200" version="1.1" xmlns="http://www.w3.org/2000/svg" xmlns:xlink="http://www.w3.org/1999/xlink" xml:space="preserve" xmlns:serif="http://www.serif.com/" style="fill-rule:evenodd;clip-rule:evenodd;stroke-linecap:round;stroke-linejoin:round;stroke-miterlimit:1.5;">
    <rect x="0" y="0" width="100" height="200" style="fill:rgb(79,70,229);fill-opacity:0.4;stroke:rgb(79,70,229);stroke-width:2px;"/>
    <g transform="matrix(1,0,0,0.5,100,100)">
        <rect x="0" y="0" width="100" height="200" style="fill:rgb(79,70,229);fill-opacity:0.4;stroke:rgb(79,70,229);stroke-width:2.53px;"/>
    </g>
    <g transform="matrix(0.5,0,0,0.5,100,2.84217e-14)">
        <rect x="0" y="0" width="100" height="200" style="fill:rgb(79,70,229);fill-opacity:0.4;stroke:rgb(79,70,229);stroke-width:4px;"/>
    </g>
    <g transform="matrix(0.5,0,0,0.25,150,50)">
        <rect x="0" y="0" width="100" height="200" style="fill:rgb(79,70,229);fill-opacity:0.4;stroke:rgb(79,70,229);stroke-width:5.06px;"/>
    </g>
    <g transform="matrix(0.25,0,0,0.25,150,5.68434e-14)">
        <rect x="0" y="0" width="100" height="200" style="fill:rgb(79,70,229);fill-opacity:0.4;stroke:rgb(79,70,229);stroke-width:8px;"/>
    </g>
    <g transform="matrix(0.25,0,0,0.125,175,25)">
        <rect x="0" y="0" width="100" height="200" style="fill:rgb(79,70,229);fill-opacity:0.4;stroke:rgb(79,70,229);stroke-width:10.12px;"/>
    </g>
    <g transform="matrix(0.125,0,0,0.125,175,1.13687e-13)">
        <rect x="0" y="0" width="100" height="200" style="fill:rgb(79,70,229);fill-opacity:0.4;stroke:rgb(79,70,229);stroke-width:16px;"/>
    </g>
    <g transform="matrix(0.125,0,0,0.0625,187.5,12.5)">
        <rect x="0" y="0" width="100" height="200" style="fill:rgb(79,70,229);fill-opacity:0.4;stroke:rgb(79,70,229);stroke-width:20.24px;"/>
    </g>
    <g transform="matrix(0.0625,0,0,0.0625,187.5,0)">
        <rect x="0" y="0" width="100" height="200" style="fill:rgb(79,70,229);fill-opacity:0.4;stroke:rgb(79,70,229);stroke-width:32px;"/>
    </g>
    <g transform="matrix(0.0625,0,0,0.03125,193.75,6.25)">
        <rect x="0" y="0" width="100" height="200" style="fill:rgb(79,70,229);fill-opacity:0.4;stroke:rgb(79,70,229);stroke-width:40.48px;"/>
    </g>
    <g transform="matrix(0.03125,0,0,0.03125,193.75,0)">
        <rect x="0" y="0" width="100" height="200" style="fill:rgb(79,70,229);fill-opacity:0.4;stroke:rgb(79,70,229);stroke-width:64px;"/>
    </g>
    <g transform="matrix(0.03125,0,0,0.015625,196.875,3.125)">
        <rect x="0" y="0" width="100" height="200" style="fill:rgb(79,70,229);fill-opacity:0.4;stroke:rgb(79,70,229);stroke-width:80.95px;"/>
    </g>
    <g transform="matrix(0.015625,0,0,0.015625,196.875,1.13687e-13)">
        <rect x="0" y="0" width="100" height="200" style="fill:rgb(79,70,229);fill-opacity:0.4;stroke:rgb(79,70,229);stroke-width:128px;"/>
    </g>
    <g transform="matrix(0.015625,0,0,0.0078125,198.438,1.5625)">
        <rect x="0" y="0" width="100" height="200" style="fill:rgb(79,70,229);fill-opacity:0.4;stroke:rgb(79,70,229);stroke-width:161.91px;"/>
    </g>
    <g transform="matrix(0.015625,0,0,0.0078125,198.438,2.27374e-13)">
        <rect x="0" y="0" width="100" height="200" style="fill:rgb(79,70,229);fill-opacity:0.4;stroke:rgb(79,70,229);stroke-width:161.91px;"/>
    </g>
    <g>
        <g>
            <g transform="matrix(1.83762,0,0,1.83762,-18.4144,-52.2445)">
                <path d="M35.302,73.995L35.302,73.62C36.263,73.62 36.992,73.364 37.488,72.853C37.624,72.853 37.705,72.868 37.728,72.9C37.751,72.931 37.763,73.019 37.763,73.163L37.763,79.896C37.763,80.134 37.822,80.29 37.939,80.364C38.056,80.439 38.371,80.476 38.882,80.476L39.263,80.476L39.263,80.845C38.982,80.821 38.333,80.81 37.318,80.81C36.302,80.81 35.656,80.821 35.378,80.845L35.378,80.476L35.759,80.476C36.263,80.476 36.576,80.44 36.697,80.367C36.818,80.295 36.878,80.138 36.878,79.896L36.878,73.679C36.46,73.89 35.935,73.995 35.302,73.995Z" style="fill:rgb(79,70,229);fill-rule:nonzero;"/>
                <path d="M34.833,92.845C34.833,92.7 34.84,92.607 34.854,92.564C34.868,92.521 34.906,92.466 34.968,92.4L37.271,89.833C38.111,88.888 38.531,88.003 38.531,87.179C38.531,86.644 38.391,86.185 38.112,85.802C37.832,85.419 37.437,85.228 36.925,85.228C36.574,85.228 36.249,85.335 35.953,85.55C35.656,85.765 35.439,86.064 35.302,86.446C35.326,86.439 35.378,86.435 35.46,86.435C35.66,86.435 35.815,86.497 35.926,86.622C36.038,86.747 36.093,86.894 36.093,87.062C36.093,87.277 36.024,87.436 35.885,87.539C35.747,87.643 35.609,87.695 35.472,87.695C35.417,87.695 35.354,87.689 35.282,87.677C35.209,87.665 35.117,87.604 35.003,87.492C34.89,87.381 34.833,87.226 34.833,87.027C34.833,86.468 35.045,85.966 35.469,85.521C35.893,85.075 36.429,84.853 37.078,84.853C37.812,84.853 38.42,85.071 38.903,85.506C39.385,85.942 39.626,86.499 39.626,87.179C39.626,87.417 39.59,87.645 39.518,87.862C39.446,88.078 39.362,88.271 39.266,88.439C39.17,88.607 38.994,88.825 38.736,89.095C38.478,89.364 38.246,89.595 38.039,89.786C37.831,89.978 37.496,90.277 37.031,90.683L35.759,91.919L37.921,91.919C38.624,91.919 39.003,91.888 39.058,91.825C39.136,91.712 39.224,91.357 39.322,90.759L39.626,90.759L39.287,92.845L34.833,92.845Z" style="fill:rgb(79,70,229);fill-rule:nonzero;"/>
            </g>
            <path d="M43,100L57,100" style="fill:none;stroke:rgb(79,70,229);stroke-width:1px;stroke-linecap:butt;"/>
        </g>
        <g transform="matrix(1,0,0,1,100,50)">
            <g transform="matrix(1.83762,0,0,1.83762,-18.4144,-52.2445)">
                <path d="M35.302,73.995L35.302,73.62C36.263,73.62 36.992,73.364 37.488,72.853C37.624,72.853 37.705,72.868 37.728,72.9C37.751,72.931 37.763,73.019 37.763,73.163L37.763,79.896C37.763,80.134 37.822,80.29 37.939,80.364C38.056,80.439 38.371,80.476 38.882,80.476L39.263,80.476L39.263,80.845C38.982,80.821 38.333,80.81 37.318,80.81C36.302,80.81 35.656,80.821 35.378,80.845L35.378,80.476L35.759,80.476C36.263,80.476 36.576,80.44 36.697,80.367C36.818,80.295 36.878,80.138 36.878,79.896L36.878,73.679C36.46,73.89 35.935,73.995 35.302,73.995Z" style="fill:rgb(79,70,229);fill-rule:nonzero;"/>
                <path d="M34.57,90.864L34.57,90.495L38.255,84.864C38.318,84.767 38.398,84.72 38.496,84.724C38.585,84.724 38.64,84.741 38.66,84.777C38.679,84.812 38.689,84.898 38.689,85.034L38.689,90.495L39.89,90.495L39.89,90.864L38.689,90.864L38.689,91.907C38.689,92.138 38.737,92.29 38.832,92.364C38.928,92.439 39.183,92.476 39.597,92.476L39.849,92.476L39.849,92.845C39.521,92.821 38.978,92.81 38.22,92.81C37.466,92.81 36.925,92.821 36.597,92.845L36.597,92.476L36.849,92.476C37.263,92.476 37.519,92.44 37.617,92.367C37.714,92.295 37.763,92.142 37.763,91.907L37.763,90.864L34.57,90.864ZM34.91,90.495L37.833,90.495L37.833,86.019L34.91,90.495Z" style="fill:rgb(79,70,229);fill-rule:nonzero;"/>
            </g>
            <path d="M43,100L57,100" style="fill:none;stroke:rgb(79,70,229);stroke-width:1px;stroke-linecap:butt;"/>
        </g>
        <g transform="matrix(0.785714,0,0,0.785714,85.7143,-28.5195)">
            <g transform="matrix(1.83762,0,0,1.83762,-18.4144,-52.2445)">
                <path d="M35.302,73.995L35.302,73.62C36.263,73.62 36.992,73.364 37.488,72.853C37.624,72.853 37.705,72.868 37.728,72.9C37.751,72.931 37.763,73.019 37.763,73.163L37.763,79.896C37.763,80.134 37.822,80.29 37.939,80.364C38.056,80.439 38.371,80.476 38.882,80.476L39.263,80.476L39.263,80.845C38.982,80.821 38.333,80.81 37.318,80.81C36.302,80.81 35.656,80.821 35.378,80.845L35.378,80.476L35.759,80.476C36.263,80.476 36.576,80.44 36.697,80.367C36.818,80.295 36.878,80.138 36.878,79.896L36.878,73.679C36.46,73.89 35.935,73.995 35.302,73.995Z" style="fill:rgb(79,70,229);fill-rule:nonzero;"/>
                <path d="M34.74,91.034C34.74,90.14 35.316,89.404 36.468,88.825C35.972,88.489 35.679,88.273 35.589,88.175C35.238,87.784 35.062,87.345 35.062,86.857C35.062,86.298 35.274,85.824 35.698,85.436C36.122,85.047 36.634,84.853 37.236,84.853C37.81,84.853 38.314,85.019 38.748,85.351C39.181,85.683 39.398,86.112 39.398,86.64C39.398,87.382 38.914,88.003 37.945,88.503C38.585,88.902 38.982,89.185 39.134,89.353C39.525,89.786 39.72,90.279 39.72,90.829C39.72,91.47 39.474,92.01 38.982,92.449C38.49,92.889 37.904,93.109 37.224,93.109C36.56,93.109 35.98,92.915 35.484,92.529C34.988,92.142 34.74,91.644 34.74,91.034ZM35.337,91.034C35.337,91.53 35.524,91.945 35.897,92.277C36.27,92.609 36.716,92.775 37.236,92.775C37.74,92.775 38.18,92.63 38.557,92.341C38.934,92.052 39.123,91.693 39.123,91.263C39.123,91.095 39.094,90.939 39.038,90.794C38.981,90.65 38.897,90.52 38.786,90.404C38.674,90.289 38.584,90.205 38.516,90.153C38.448,90.1 38.349,90.029 38.22,89.939L36.744,89.007C35.806,89.527 35.337,90.202 35.337,91.034ZM35.589,86.388C35.589,86.771 35.79,87.095 36.193,87.361L37.681,88.321C38.474,87.857 38.871,87.296 38.871,86.64C38.871,86.214 38.708,85.86 38.384,85.576C38.06,85.293 37.673,85.152 37.224,85.152C36.783,85.152 36.4,85.268 36.076,85.5C35.751,85.733 35.589,86.029 35.589,86.388Z" style="fill:rgb(79,70,229);fill-rule:nonzero;"/>
            </g>
            <path d="M43,100L57,100" style="fill:none;stroke:rgb(79,70,229);stroke-width:1.27px;stroke-linecap:butt;"/>
        </g>
        <g transform="matrix(0.610514,0,0,0.610514,144.565,13.8007)">
            <g transform="matrix(1.83762,0,0,1.83762,-18.4144,-52.2445)">
                <path d="M35.302,73.995L35.302,73.62C36.263,73.62 36.992,73.364 37.488,72.853C37.624,72.853 37.705,72.868 37.728,72.9C37.751,72.931 37.763,73.019 37.763,73.163L37.763,79.896C37.763,80.134 37.822,80.29 37.939,80.364C38.056,80.439 38.371,80.476 38.882,80.476L39.263,80.476L39.263,80.845C38.982,80.821 38.333,80.81 37.318,80.81C36.302,80.81 35.656,80.821 35.378,80.845L35.378,80.476L35.759,80.476C36.263,80.476 36.576,80.44 36.697,80.367C36.818,80.295 36.878,80.138 36.878,79.896L36.878,73.679C36.46,73.89 35.935,73.995 35.302,73.995Z" style="fill:rgb(79,70,229);fill-rule:nonzero;"/>
                <path d="M32.302,85.995L32.302,85.62C33.263,85.62 33.992,85.364 34.488,84.853C34.624,84.853 34.705,84.868 34.728,84.9C34.751,84.931 34.763,85.019 34.763,85.163L34.763,91.896C34.763,92.134 34.822,92.29 34.939,92.364C35.056,92.439 35.371,92.476 35.882,92.476L36.263,92.476L36.263,92.845C35.982,92.821 35.333,92.81 34.318,92.81C33.302,92.81 32.656,92.821 32.378,92.845L32.378,92.476L32.759,92.476C33.263,92.476 33.576,92.44 33.697,92.367C33.818,92.295 33.878,92.138 33.878,91.896L33.878,85.679C33.46,85.89 32.935,85.995 32.302,85.995Z" style="fill:rgb(79,70,229);fill-rule:nonzero;"/>
                <path d="M37.74,89.054C37.74,87.796 38.06,86.781 38.701,86.01C39.341,85.238 40.074,84.853 40.898,84.853C41.378,84.853 41.752,84.975 42.02,85.219C42.288,85.463 42.421,85.773 42.421,86.148C42.421,86.355 42.361,86.503 42.24,86.593C42.119,86.683 41.996,86.728 41.871,86.728C41.726,86.728 41.597,86.679 41.484,86.581C41.371,86.484 41.314,86.347 41.314,86.171C41.314,85.812 41.535,85.632 41.976,85.632C41.769,85.312 41.417,85.152 40.921,85.152C40.769,85.152 40.615,85.174 40.458,85.219C40.302,85.264 40.123,85.361 39.919,85.509C39.716,85.657 39.537,85.849 39.38,86.083C39.224,86.318 39.091,86.655 38.982,87.097C38.873,87.538 38.818,88.046 38.818,88.62L38.818,88.907C39.146,88.114 39.646,87.719 40.318,87.721C40.99,87.723 41.558,87.98 42.023,88.491C42.488,89.003 42.72,89.638 42.72,90.396C42.72,91.173 42.478,91.82 41.994,92.335C41.509,92.851 40.927,93.109 40.248,93.109C39.943,93.109 39.653,93.045 39.377,92.918C39.102,92.791 38.836,92.583 38.581,92.294C38.325,92.005 38.121,91.583 37.968,91.029C37.816,90.474 37.74,89.816 37.74,89.054ZM38.841,90.132C38.841,90.917 38.914,91.497 39.058,91.872C39.081,91.935 39.12,92.009 39.172,92.095C39.225,92.181 39.297,92.279 39.389,92.391C39.481,92.502 39.603,92.594 39.755,92.666C39.908,92.738 40.072,92.775 40.248,92.775C40.783,92.775 41.179,92.515 41.437,91.995C41.574,91.706 41.642,91.169 41.642,90.384C41.642,89.583 41.57,89.036 41.425,88.743C41.179,88.247 40.806,87.999 40.306,87.999C39.97,87.999 39.686,88.114 39.454,88.345C39.221,88.575 39.061,88.845 38.973,89.154C38.885,89.462 38.841,89.788 38.841,90.132Z" style="fill:rgb(79,70,229);fill-rule:nonzero;"/>
            </g>
            <g transform="matrix(1.36745,0,0,1,-17.8555,0)">
                <path d="M43,100L57,100" style="fill:none;stroke:rgb(79,70,229);stroke-width:1.37px;stroke-linecap:butt;"/>
            </g>
        </g>
        <g transform="matrix(0.429847,0,0,0.429847,140.692,-18.0888)">
            <g transform="matrix(1.83762,0,0,1.83762,-18.4144,-52.2445)">
                <path d="M35.302,73.995L35.302,73.62C36.263,73.62 36.992,73.364 37.488,72.853C37.624,72.853 37.705,72.868 37.728,72.9C37.751,72.931 37.763,73.019 37.763,73.163L37.763,79.896C37.763,80.134 37.822,80.29 37.939,80.364C38.056,80.439 38.371,80.476 38.882,80.476L39.263,80.476L39.263,80.845C38.982,80.821 38.333,80.81 37.318,80.81C36.302,80.81 35.656,80.821 35.378,80.845L35.378,80.476L35.759,80.476C36.263,80.476 36.576,80.44 36.697,80.367C36.818,80.295 36.878,80.138 36.878,79.896L36.878,73.679C36.46,73.89 35.935,73.995 35.302,73.995Z" style="fill:rgb(79,70,229);fill-rule:nonzero;"/>
                <path d="M31.74,91.228C31.74,90.989 31.808,90.814 31.945,90.7C32.081,90.587 32.238,90.53 32.414,90.53C32.597,90.53 32.754,90.59 32.885,90.709C33.016,90.828 33.081,90.991 33.081,91.198C33.081,91.421 33.004,91.595 32.85,91.72C32.696,91.845 32.509,91.892 32.29,91.861C32.482,92.181 32.754,92.413 33.108,92.558C33.461,92.702 33.802,92.775 34.13,92.775C34.474,92.775 34.786,92.626 35.065,92.329C35.344,92.032 35.484,91.521 35.484,90.794C35.484,90.177 35.364,89.691 35.123,89.335C34.883,88.98 34.527,88.802 34.054,88.802L33.527,88.802C33.406,88.802 33.328,88.796 33.292,88.784C33.257,88.773 33.24,88.734 33.24,88.667C33.24,88.589 33.3,88.542 33.421,88.527C33.542,88.527 33.699,88.515 33.89,88.491C34.355,88.476 34.71,88.267 34.956,87.864C35.179,87.489 35.29,87.034 35.29,86.499C35.29,86.011 35.174,85.664 34.942,85.459C34.709,85.254 34.443,85.152 34.142,85.152C33.861,85.152 33.566,85.21 33.257,85.327C32.949,85.445 32.71,85.634 32.542,85.896C33.039,85.896 33.287,86.097 33.287,86.499C33.287,86.675 33.231,86.821 33.12,86.936C33.008,87.051 32.861,87.109 32.677,87.109C32.501,87.109 32.355,87.053 32.238,86.942C32.121,86.83 32.062,86.679 32.062,86.487C32.062,86.03 32.266,85.644 32.674,85.327C33.082,85.011 33.587,84.853 34.189,84.853C34.783,84.853 35.299,85.009 35.739,85.321C36.178,85.634 36.398,86.03 36.398,86.511C36.398,86.984 36.242,87.413 35.929,87.8C35.617,88.187 35.212,88.46 34.716,88.62C35.326,88.741 35.812,89.008 36.175,89.42C36.539,89.832 36.72,90.29 36.72,90.794C36.72,91.419 36.474,91.961 35.982,92.42C35.49,92.879 34.884,93.109 34.165,93.109C33.501,93.109 32.931,92.929 32.455,92.57C31.978,92.21 31.74,91.763 31.74,91.228Z" style="fill:rgb(79,70,229);fill-rule:nonzero;"/>
                <path d="M37.833,92.845C37.833,92.7 37.84,92.607 37.854,92.564C37.868,92.521 37.906,92.466 37.968,92.4L40.271,89.833C41.111,88.888 41.531,88.003 41.531,87.179C41.531,86.644 41.391,86.185 41.112,85.802C40.832,85.419 40.437,85.228 39.925,85.228C39.574,85.228 39.249,85.335 38.953,85.55C38.656,85.765 38.439,86.064 38.302,86.446C38.326,86.439 38.378,86.435 38.46,86.435C38.66,86.435 38.815,86.497 38.926,86.622C39.038,86.747 39.093,86.894 39.093,87.062C39.093,87.277 39.024,87.436 38.885,87.539C38.747,87.643 38.609,87.695 38.472,87.695C38.417,87.695 38.354,87.689 38.282,87.677C38.209,87.665 38.117,87.604 38.003,87.492C37.89,87.381 37.833,87.226 37.833,87.027C37.833,86.468 38.045,85.966 38.469,85.521C38.893,85.075 39.429,84.853 40.078,84.853C40.812,84.853 41.42,85.071 41.903,85.506C42.385,85.942 42.626,86.499 42.626,87.179C42.626,87.417 42.59,87.645 42.518,87.862C42.446,88.078 42.362,88.271 42.266,88.439C42.17,88.607 41.994,88.825 41.736,89.095C41.478,89.364 41.246,89.595 41.039,89.786C40.831,89.978 40.496,90.277 40.031,90.683L38.759,91.919L40.921,91.919C41.624,91.919 42.003,91.888 42.058,91.825C42.136,91.712 42.224,91.357 42.322,90.759L42.626,90.759L42.287,92.845L37.833,92.845Z" style="fill:rgb(79,70,229);fill-rule:nonzero;"/>
            </g>
            <g transform="matrix(1.42897,0,0,1,-21.3626,0)">
                <path d="M43,100L57,100" style="fill:none;stroke:rgb(79,70,229);stroke-width:1.89px;stroke-linecap:butt;"/>
            </g>
        </g>
        <g transform="matrix(0.298474,0,0,0.298474,172.597,7.58029)">
            <g transform="matrix(1.83762,0,0,1.83762,-18.4144,-52.2445)">
                <path d="M35.302,73.995L35.302,73.62C36.263,73.62 36.992,73.364 37.488,72.853C37.624,72.853 37.705,72.868 37.728,72.9C37.751,72.931 37.763,73.019 37.763,73.163L37.763,79.896C37.763,80.134 37.822,80.29 37.939,80.364C38.056,80.439 38.371,80.476 38.882,80.476L39.263,80.476L39.263,80.845C38.982,80.821 38.333,80.81 37.318,80.81C36.302,80.81 35.656,80.821 35.378,80.845L35.378,80.476L35.759,80.476C36.263,80.476 36.576,80.44 36.697,80.367C36.818,80.295 36.878,80.138 36.878,79.896L36.878,73.679C36.46,73.89 35.935,73.995 35.302,73.995Z" style="fill:rgb(79,70,229);fill-rule:nonzero;"/>
                <path d="M31.74,89.054C31.74,87.796 32.06,86.781 32.701,86.01C33.341,85.238 34.074,84.853 34.898,84.853C35.378,84.853 35.752,84.975 36.02,85.219C36.288,85.463 36.421,85.773 36.421,86.148C36.421,86.355 36.361,86.503 36.24,86.593C36.119,86.683 35.996,86.728 35.871,86.728C35.726,86.728 35.597,86.679 35.484,86.581C35.371,86.484 35.314,86.347 35.314,86.171C35.314,85.812 35.535,85.632 35.976,85.632C35.769,85.312 35.417,85.152 34.921,85.152C34.769,85.152 34.615,85.174 34.458,85.219C34.302,85.264 34.123,85.361 33.919,85.509C33.716,85.657 33.537,85.849 33.38,86.083C33.224,86.318 33.091,86.655 32.982,87.097C32.873,87.538 32.818,88.046 32.818,88.62L32.818,88.907C33.146,88.114 33.646,87.719 34.318,87.721C34.99,87.723 35.558,87.98 36.023,88.491C36.488,89.003 36.72,89.638 36.72,90.396C36.72,91.173 36.478,91.82 35.994,92.335C35.509,92.851 34.927,93.109 34.248,93.109C33.943,93.109 33.653,93.045 33.377,92.918C33.102,92.791 32.836,92.583 32.581,92.294C32.325,92.005 32.121,91.583 31.968,91.029C31.816,90.474 31.74,89.816 31.74,89.054ZM32.841,90.132C32.841,90.917 32.914,91.497 33.058,91.872C33.081,91.935 33.12,92.009 33.172,92.095C33.225,92.181 33.297,92.279 33.389,92.391C33.481,92.502 33.603,92.594 33.755,92.666C33.908,92.738 34.072,92.775 34.248,92.775C34.783,92.775 35.179,92.515 35.437,91.995C35.574,91.706 35.642,91.169 35.642,90.384C35.642,89.583 35.57,89.036 35.425,88.743C35.179,88.247 34.806,87.999 34.306,87.999C33.97,87.999 33.686,88.114 33.454,88.345C33.221,88.575 33.061,88.845 32.973,89.154C32.885,89.462 32.841,89.788 32.841,90.132Z" style="fill:rgb(79,70,229);fill-rule:nonzero;"/>
                <path d="M37.57,90.864L37.57,90.495L41.255,84.864C41.318,84.767 41.398,84.72 41.496,84.724C41.585,84.724 41.64,84.741 41.66,84.777C41.679,84.812 41.689,84.898 41.689,85.034L41.689,90.495L42.89,90.495L42.89,90.864L41.689,90.864L41.689,91.907C41.689,92.138 41.737,92.29 41.832,92.364C41.928,92.439 42.183,92.476 42.597,92.476L42.849,92.476L42.849,92.845C42.521,92.821 41.978,92.81 41.22,92.81C40.466,92.81 39.925,92.821 39.597,92.845L39.597,92.476L39.849,92.476C40.263,92.476 40.519,92.44 40.617,92.367C40.714,92.295 40.763,92.142 40.763,91.907L40.763,90.864L37.57,90.864ZM37.91,90.495L40.833,90.495L40.833,86.019L37.91,90.495Z" style="fill:rgb(79,70,229);fill-rule:nonzero;"/>
            </g>
            <g transform="matrix(1.42897,0,0,1,-21.3626,0)">
                <path d="M43,100L57,100" style="fill:none;stroke:rgb(79,70,229);stroke-width:2.04px;stroke-linecap:butt;"/>
            </g>
        </g>
        <g transform="matrix(0.20892,0,0,0.20892,170.804,-8.44265)">
            <g transform="matrix(1.83762,0,0,1.83762,-18.4144,-52.2445)">
                <path d="M35.302,73.995L35.302,73.62C36.263,73.62 36.992,73.364 37.488,72.853C37.624,72.853 37.705,72.868 37.728,72.9C37.751,72.931 37.763,73.019 37.763,73.163L37.763,79.896C37.763,80.134 37.822,80.29 37.939,80.364C38.056,80.439 38.371,80.476 38.882,80.476L39.263,80.476L39.263,80.845C38.982,80.821 38.333,80.81 37.318,80.81C36.302,80.81 35.656,80.821 35.378,80.845L35.378,80.476L35.759,80.476C36.263,80.476 36.576,80.44 36.697,80.367C36.818,80.295 36.878,80.138 36.878,79.896L36.878,73.679C36.46,73.89 35.935,73.995 35.302,73.995Z" style="fill:rgb(79,70,229);fill-rule:nonzero;"/>
                <path d="M29.302,85.995L29.302,85.62C30.263,85.62 30.992,85.364 31.488,84.853C31.624,84.853 31.705,84.868 31.728,84.9C31.751,84.931 31.763,85.019 31.763,85.163L31.763,91.896C31.763,92.134 31.822,92.29 31.939,92.364C32.056,92.439 32.371,92.476 32.882,92.476L33.263,92.476L33.263,92.845C32.982,92.821 32.333,92.81 31.318,92.81C30.302,92.81 29.656,92.821 29.378,92.845L29.378,92.476L29.759,92.476C30.263,92.476 30.576,92.44 30.697,92.367C30.818,92.295 30.878,92.138 30.878,91.896L30.878,85.679C30.46,85.89 29.935,85.995 29.302,85.995Z" style="fill:rgb(79,70,229);fill-rule:nonzero;"/>
                <path d="M34.833,92.845C34.833,92.7 34.84,92.607 34.854,92.564C34.868,92.521 34.906,92.466 34.968,92.4L37.271,89.833C38.111,88.888 38.531,88.003 38.531,87.179C38.531,86.644 38.391,86.185 38.112,85.802C37.832,85.419 37.437,85.228 36.925,85.228C36.574,85.228 36.249,85.335 35.953,85.55C35.656,85.765 35.439,86.064 35.302,86.446C35.326,86.439 35.378,86.435 35.46,86.435C35.66,86.435 35.815,86.497 35.926,86.622C36.038,86.747 36.093,86.894 36.093,87.062C36.093,87.277 36.024,87.436 35.885,87.539C35.747,87.643 35.609,87.695 35.472,87.695C35.417,87.695 35.354,87.689 35.282,87.677C35.209,87.665 35.117,87.604 35.003,87.492C34.89,87.381 34.833,87.226 34.833,87.027C34.833,86.468 35.045,85.966 35.469,85.521C35.893,85.075 36.429,84.853 37.078,84.853C37.812,84.853 38.42,85.071 38.903,85.506C39.385,85.942 39.626,86.499 39.626,87.179C39.626,87.417 39.59,87.645 39.518,87.862C39.446,88.078 39.362,88.271 39.266,88.439C39.17,88.607 38.994,88.825 38.736,89.095C38.478,89.364 38.246,89.595 38.039,89.786C37.831,89.978 37.496,90.277 37.031,90.683L35.759,91.919L37.921,91.919C38.624,91.919 39.003,91.888 39.058,91.825C39.136,91.712 39.224,91.357 39.322,90.759L39.626,90.759L39.287,92.845L34.833,92.845Z" style="fill:rgb(79,70,229);fill-rule:nonzero;"/>
                <path d="M40.74,91.034C40.74,90.14 41.316,89.404 42.468,88.825C41.972,88.489 41.679,88.273 41.589,88.175C41.238,87.784 41.062,87.345 41.062,86.857C41.062,86.298 41.274,85.824 41.698,85.436C42.122,85.047 42.634,84.853 43.236,84.853C43.81,84.853 44.314,85.019 44.748,85.351C45.181,85.683 45.398,86.112 45.398,86.64C45.398,87.382 44.914,88.003 43.945,88.503C44.585,88.902 44.982,89.185 45.134,89.353C45.525,89.786 45.72,90.279 45.72,90.829C45.72,91.47 45.474,92.01 44.982,92.449C44.49,92.889 43.904,93.109 43.224,93.109C42.56,93.109 41.98,92.915 41.484,92.529C40.988,92.142 40.74,91.644 40.74,91.034ZM41.337,91.034C41.337,91.53 41.524,91.945 41.897,92.277C42.27,92.609 42.716,92.775 43.236,92.775C43.74,92.775 44.18,92.63 44.557,92.341C44.934,92.052 45.123,91.693 45.123,91.263C45.123,91.095 45.094,90.939 45.038,90.794C44.981,90.65 44.897,90.52 44.786,90.404C44.674,90.289 44.584,90.205 44.516,90.153C44.448,90.1 44.349,90.029 44.22,89.939L42.744,89.007C41.806,89.527 41.337,90.202 41.337,91.034ZM41.589,86.388C41.589,86.771 41.79,87.095 42.193,87.361L43.681,88.321C44.474,87.857 44.871,87.296 44.871,86.64C44.871,86.214 44.708,85.86 44.384,85.576C44.06,85.293 43.673,85.152 43.224,85.152C42.783,85.152 42.4,85.268 42.076,85.5C41.751,85.733 41.589,86.029 41.589,86.388Z" style="fill:rgb(79,70,229);fill-rule:nonzero;"/>
            </g>
            <g transform="matrix(2.155,0,0,1,-57.233,0)">
                <path d="M43,100L57,100" style="fill:none;stroke:rgb(79,70,229);stroke-width:1.42px;stroke-linecap:butt;"/>
            </g>
        </g>
        <g transform="matrix(0.174625,0,0,0.174625,185.036,1.24516)">
            <g transform="matrix(1.83762,0,0,1.83762,-18.4144,-52.2445)">
                <path d="M35.302,73.995L35.302,73.62C36.263,73.62 36.992,73.364 37.488,72.853C37.624,72.853 37.705,72.868 37.728,72.9C37.751,72.931 37.763,73.019 37.763,73.163L37.763,79.896C37.763,80.134 37.822,80.29 37.939,80.364C38.056,80.439 38.371,80.476 38.882,80.476L39.263,80.476L39.263,80.845C38.982,80.821 38.333,80.81 37.318,80.81C36.302,80.81 35.656,80.821 35.378,80.845L35.378,80.476L35.759,80.476C36.263,80.476 36.576,80.44 36.697,80.367C36.818,80.295 36.878,80.138 36.878,79.896L36.878,73.679C36.46,73.89 35.935,73.995 35.302,73.995Z" style="fill:rgb(79,70,229);fill-rule:nonzero;"/>
                <path d="M28.833,92.845C28.833,92.7 28.84,92.607 28.854,92.564C28.868,92.521 28.906,92.466 28.968,92.4L31.271,89.833C32.111,88.888 32.531,88.003 32.531,87.179C32.531,86.644 32.391,86.185 32.112,85.802C31.832,85.419 31.437,85.228 30.925,85.228C30.574,85.228 30.249,85.335 29.953,85.55C29.656,85.765 29.439,86.064 29.302,86.446C29.326,86.439 29.378,86.435 29.46,86.435C29.66,86.435 29.815,86.497 29.926,86.622C30.038,86.747 30.093,86.894 30.093,87.062C30.093,87.277 30.024,87.436 29.885,87.539C29.747,87.643 29.609,87.695 29.472,87.695C29.417,87.695 29.354,87.689 29.282,87.677C29.209,87.665 29.117,87.604 29.003,87.492C28.89,87.381 28.833,87.226 28.833,87.027C28.833,86.468 29.045,85.966 29.469,85.521C29.893,85.075 30.429,84.853 31.078,84.853C31.812,84.853 32.42,85.071 32.903,85.506C33.385,85.942 33.626,86.499 33.626,87.179C33.626,87.417 33.59,87.645 33.518,87.862C33.446,88.078 33.362,88.271 33.266,88.439C33.17,88.607 32.994,88.825 32.736,89.095C32.478,89.364 32.246,89.595 32.039,89.786C31.831,89.978 31.496,90.277 31.031,90.683L29.759,91.919L31.921,91.919C32.624,91.919 33.003,91.888 33.058,91.825C33.136,91.712 33.224,91.357 33.322,90.759L33.626,90.759L33.287,92.845L28.833,92.845Z" style="fill:rgb(79,70,229);fill-rule:nonzero;"/>
                <path d="M34.833,90.911C34.833,90.673 34.898,90.508 35.027,90.416C35.156,90.324 35.289,90.279 35.425,90.279C35.609,90.279 35.754,90.336 35.862,90.451C35.969,90.567 36.023,90.704 36.023,90.864C36.023,91.025 35.969,91.162 35.862,91.278C35.754,91.393 35.609,91.45 35.425,91.45C35.335,91.45 35.267,91.443 35.22,91.427C35.326,91.794 35.539,92.111 35.862,92.376C36.184,92.642 36.558,92.775 36.984,92.775C37.519,92.775 37.947,92.515 38.267,91.995C38.458,91.659 38.554,91.111 38.554,90.349C38.554,89.677 38.482,89.173 38.337,88.837C38.115,88.325 37.775,88.07 37.318,88.07C36.669,88.07 36.154,88.349 35.771,88.907C35.724,88.978 35.673,89.015 35.619,89.019C35.54,89.019 35.493,88.996 35.475,88.951C35.457,88.906 35.449,88.823 35.449,88.702L35.449,85.152C35.449,84.96 35.488,84.864 35.566,84.864C35.597,84.864 35.646,84.876 35.712,84.9C36.216,85.122 36.748,85.236 37.306,85.239C37.88,85.239 38.425,85.122 38.941,84.888C38.98,84.864 39.011,84.853 39.035,84.853C39.113,84.853 39.154,84.898 39.158,84.987C39.158,85.019 39.125,85.08 39.061,85.172C38.997,85.264 38.896,85.369 38.759,85.488C38.623,85.608 38.466,85.724 38.29,85.837C38.115,85.95 37.899,86.045 37.643,86.121C37.387,86.197 37.119,86.236 36.837,86.236C36.501,86.236 36.162,86.183 35.818,86.077L35.818,88.415C36.232,88.009 36.74,87.806 37.341,87.806C37.982,87.806 38.523,88.064 38.964,88.579C39.406,89.095 39.626,89.712 39.626,90.431C39.626,91.185 39.366,91.82 38.844,92.335C38.323,92.851 37.71,93.109 37.007,93.109C36.367,93.109 35.844,92.88 35.44,92.423C35.036,91.966 34.833,91.462 34.833,90.911Z" style="fill:rgb(79,70,229);fill-rule:nonzero;"/>
                <path d="M40.74,89.054C40.74,87.796 41.06,86.781 41.701,86.01C42.341,85.238 43.074,84.853 43.898,84.853C44.378,84.853 44.752,84.975 45.02,85.219C45.288,85.463 45.421,85.773 45.421,86.148C45.421,86.355 45.361,86.503 45.24,86.593C45.119,86.683 44.996,86.728 44.871,86.728C44.726,86.728 44.597,86.679 44.484,86.581C44.371,86.484 44.314,86.347 44.314,86.171C44.314,85.812 44.535,85.632 44.976,85.632C44.769,85.312 44.417,85.152 43.921,85.152C43.769,85.152 43.615,85.174 43.458,85.219C43.302,85.264 43.123,85.361 42.919,85.509C42.716,85.657 42.537,85.849 42.38,86.083C42.224,86.318 42.091,86.655 41.982,87.097C41.873,87.538 41.818,88.046 41.818,88.62L41.818,88.907C42.146,88.114 42.646,87.719 43.318,87.721C43.99,87.723 44.558,87.98 45.023,88.491C45.488,89.003 45.72,89.638 45.72,90.396C45.72,91.173 45.478,91.82 44.994,92.335C44.509,92.851 43.927,93.109 43.248,93.109C42.943,93.109 42.653,93.045 42.377,92.918C42.102,92.791 41.836,92.583 41.581,92.294C41.325,92.005 41.121,91.583 40.968,91.029C40.816,90.474 40.74,89.816 40.74,89.054ZM41.841,90.132C41.841,90.917 41.914,91.497 42.058,91.872C42.081,91.935 42.12,92.009 42.172,92.095C42.225,92.181 42.297,92.279 42.389,92.391C42.481,92.502 42.603,92.594 42.755,92.666C42.908,92.738 43.072,92.775 43.248,92.775C43.783,92.775 44.179,92.515 44.437,91.995C44.574,91.706 44.642,91.169 44.642,90.384C44.642,89.583 44.57,89.036 44.425,88.743C44.179,88.247 43.806,87.999 43.306,87.999C42.97,87.999 42.686,88.114 42.454,88.345C42.221,88.575 42.061,88.845 41.973,89.154C41.885,89.462 41.841,89.788 41.841,90.132Z" style="fill:rgb(79,70,229);fill-rule:nonzero;"/>
            </g>
            <g transform="matrix(2.155,0,0,1,-57.233,0)">
                <path d="M43,100L57,100" style="fill:none;stroke:rgb(79,70,229);stroke-width:1.7px;stroke-linecap:butt;"/>
            </g>
        </g>
        <g transform="matrix(0.0940291,0,0,0.0940291,185.915,-3.17569)">
            <g transform="matrix(1.83762,0,0,1.83762,-18.4144,-52.2445)">
                <path d="M35.302,73.995L35.302,73.62C36.263,73.62 36.992,73.364 37.488,72.853C37.624,72.853 37.705,72.868 37.728,72.9C37.751,72.931 37.763,73.019 37.763,73.163L37.763,79.896C37.763,80.134 37.822,80.29 37.939,80.364C38.056,80.439 38.371,80.476 38.882,80.476L39.263,80.476L39.263,80.845C38.982,80.821 38.333,80.81 37.318,80.81C36.302,80.81 35.656,80.821 35.378,80.845L35.378,80.476L35.759,80.476C36.263,80.476 36.576,80.44 36.697,80.367C36.818,80.295 36.878,80.138 36.878,79.896L36.878,73.679C36.46,73.89 35.935,73.995 35.302,73.995Z" style="fill:rgb(79,70,229);fill-rule:nonzero;"/>
                <path d="M28.833,90.911C28.833,90.673 28.898,90.508 29.027,90.416C29.156,90.324 29.289,90.279 29.425,90.279C29.609,90.279 29.754,90.336 29.862,90.451C29.969,90.567 30.023,90.704 30.023,90.864C30.023,91.025 29.969,91.162 29.862,91.278C29.754,91.393 29.609,91.45 29.425,91.45C29.335,91.45 29.267,91.443 29.22,91.427C29.326,91.794 29.539,92.111 29.862,92.376C30.184,92.642 30.558,92.775 30.984,92.775C31.519,92.775 31.947,92.515 32.267,91.995C32.458,91.659 32.554,91.111 32.554,90.349C32.554,89.677 32.482,89.173 32.337,88.837C32.115,88.325 31.775,88.07 31.318,88.07C30.669,88.07 30.154,88.349 29.771,88.907C29.724,88.978 29.673,89.015 29.619,89.019C29.54,89.019 29.493,88.996 29.475,88.951C29.457,88.906 29.449,88.823 29.449,88.702L29.449,85.152C29.449,84.96 29.488,84.864 29.566,84.864C29.597,84.864 29.646,84.876 29.712,84.9C30.216,85.122 30.748,85.236 31.306,85.239C31.88,85.239 32.425,85.122 32.941,84.888C32.98,84.864 33.011,84.853 33.035,84.853C33.113,84.853 33.154,84.898 33.158,84.987C33.158,85.019 33.125,85.08 33.061,85.172C32.997,85.264 32.896,85.369 32.759,85.488C32.623,85.608 32.466,85.724 32.29,85.837C32.115,85.95 31.899,86.045 31.643,86.121C31.387,86.197 31.119,86.236 30.837,86.236C30.501,86.236 30.162,86.183 29.818,86.077L29.818,88.415C30.232,88.009 30.74,87.806 31.341,87.806C31.982,87.806 32.523,88.064 32.964,88.579C33.406,89.095 33.626,89.712 33.626,90.431C33.626,91.185 33.366,91.82 32.844,92.335C32.323,92.851 31.71,93.109 31.007,93.109C30.367,93.109 29.844,92.88 29.44,92.423C29.036,91.966 28.833,91.462 28.833,90.911Z" style="fill:rgb(79,70,229);fill-rule:nonzero;"/>
                <path d="M35.302,85.995L35.302,85.62C36.263,85.62 36.992,85.364 37.488,84.853C37.624,84.853 37.705,84.868 37.728,84.9C37.751,84.931 37.763,85.019 37.763,85.163L37.763,91.896C37.763,92.134 37.822,92.29 37.939,92.364C38.056,92.439 38.371,92.476 38.882,92.476L39.263,92.476L39.263,92.845C38.982,92.821 38.333,92.81 37.318,92.81C36.302,92.81 35.656,92.821 35.378,92.845L35.378,92.476L35.759,92.476C36.263,92.476 36.576,92.44 36.697,92.367C36.818,92.295 36.878,92.138 36.878,91.896L36.878,85.679C36.46,85.89 35.935,85.995 35.302,85.995Z" style="fill:rgb(79,70,229);fill-rule:nonzero;"/>
                <path d="M40.833,92.845C40.833,92.7 40.84,92.607 40.854,92.564C40.868,92.521 40.906,92.466 40.968,92.4L43.271,89.833C44.111,88.888 44.531,88.003 44.531,87.179C44.531,86.644 44.391,86.185 44.112,85.802C43.832,85.419 43.437,85.228 42.925,85.228C42.574,85.228 42.249,85.335 41.953,85.55C41.656,85.765 41.439,86.064 41.302,86.446C41.326,86.439 41.378,86.435 41.46,86.435C41.66,86.435 41.815,86.497 41.926,86.622C42.038,86.747 42.093,86.894 42.093,87.062C42.093,87.277 42.024,87.436 41.885,87.539C41.747,87.643 41.609,87.695 41.472,87.695C41.417,87.695 41.354,87.689 41.282,87.677C41.209,87.665 41.117,87.604 41.003,87.492C40.89,87.381 40.833,87.226 40.833,87.027C40.833,86.468 41.045,85.966 41.469,85.521C41.893,85.075 42.429,84.853 43.078,84.853C43.812,84.853 44.42,85.071 44.903,85.506C45.385,85.942 45.626,86.499 45.626,87.179C45.626,87.417 45.59,87.645 45.518,87.862C45.446,88.078 45.362,88.271 45.266,88.439C45.17,88.607 44.994,88.825 44.736,89.095C44.478,89.364 44.246,89.595 44.039,89.786C43.831,89.978 43.496,90.277 43.031,90.683L41.759,91.919L43.921,91.919C44.624,91.919 45.003,91.888 45.058,91.825C45.136,91.712 45.224,91.357 45.322,90.759L45.626,90.759L45.287,92.845L40.833,92.845Z" style="fill:rgb(79,70,229);fill-rule:nonzero;"/>
            </g>
            <g transform="matrix(2.155,0,0,1,-57.233,0)">
                <path d="M43,100L57,100" style="fill:none;stroke:rgb(79,70,229);stroke-width:1.58px;stroke-linecap:butt;"/>
            </g>
        </g>
        <g transform="matrix(0.0638123,0,0,0.0638123,193.685,2.99728)">
            <g transform="matrix(1.83762,0,0,1.83762,-18.4144,-52.2445)">
                <path d="M35.302,73.995L35.302,73.62C36.263,73.62 36.992,73.364 37.488,72.853C37.624,72.853 37.705,72.868 37.728,72.9C37.751,72.931 37.763,73.019 37.763,73.163L37.763,79.896C37.763,80.134 37.822,80.29 37.939,80.364C38.056,80.439 38.371,80.476 38.882,80.476L39.263,80.476L39.263,80.845C38.982,80.821 38.333,80.81 37.318,80.81C36.302,80.81 35.656,80.821 35.378,80.845L35.378,80.476L35.759,80.476C36.263,80.476 36.576,80.44 36.697,80.367C36.818,80.295 36.878,80.138 36.878,79.896L36.878,73.679C36.46,73.89 35.935,73.995 35.302,73.995Z" style="fill:rgb(79,70,229);fill-rule:nonzero;"/>
                <path d="M24.641,85.995L24.641,85.62C25.602,85.62 26.331,85.364 26.827,84.853C26.963,84.853 27.043,84.868 27.067,84.9C27.09,84.931 27.102,85.019 27.102,85.163L27.102,91.896C27.102,92.134 27.161,92.29 27.278,92.364C27.395,92.439 27.709,92.476 28.221,92.476L28.602,92.476L28.602,92.845C28.321,92.821 27.672,92.81 26.657,92.81C25.641,92.81 24.995,92.821 24.717,92.845L24.717,92.476L25.098,92.476C25.602,92.476 25.914,92.44 26.036,92.367C26.157,92.295 26.217,92.138 26.217,91.896L26.217,85.679C25.799,85.89 25.274,85.995 24.641,85.995Z" style="fill:rgb(79,70,229);fill-rule:nonzero;"/>
                <path d="M30.776,92.652C30.663,92.523 30.606,92.374 30.606,92.206C30.606,92.038 30.662,91.891 30.773,91.764C30.884,91.637 31.041,91.573 31.245,91.573C31.483,91.573 31.67,91.688 31.807,91.916C31.944,92.145 32.012,92.45 32.012,92.833C32.012,93.247 31.928,93.647 31.76,94.031C31.592,94.416 31.426,94.7 31.262,94.884C31.098,95.068 30.983,95.159 30.916,95.159C30.838,95.159 30.799,95.116 30.799,95.03C30.799,94.999 30.827,94.954 30.881,94.896C31.456,94.279 31.745,93.591 31.748,92.833C31.748,92.712 31.741,92.652 31.725,92.652L31.696,92.675C31.559,92.788 31.409,92.845 31.245,92.845C31.045,92.845 30.889,92.78 30.776,92.652Z" style="fill:rgb(79,70,229);fill-rule:nonzero;"/>
                <path d="M33.366,89.007C33.366,87.831 33.514,86.923 33.811,86.282C34.225,85.329 34.92,84.853 35.897,84.853C36.104,84.853 36.316,84.881 36.533,84.938C36.749,84.994 36.996,85.13 37.271,85.345C37.546,85.56 37.768,85.843 37.936,86.195C38.256,86.874 38.416,87.812 38.416,89.007C38.416,90.175 38.268,91.077 37.971,91.714C37.538,92.644 36.842,93.109 35.885,93.109C35.526,93.109 35.164,93.017 34.798,92.833C34.433,92.65 34.135,92.337 33.905,91.896C33.545,91.236 33.366,90.273 33.366,89.007ZM34.362,88.861C34.362,90.068 34.405,90.911 34.491,91.392C34.588,91.911 34.771,92.283 35.039,92.508C35.306,92.733 35.588,92.845 35.885,92.845C36.206,92.845 36.499,92.725 36.767,92.485C37.035,92.244 37.209,91.864 37.291,91.345C37.381,90.833 37.424,90.005 37.42,88.861C37.42,87.747 37.381,86.968 37.303,86.523C37.198,86.003 37.005,85.639 36.726,85.43C36.447,85.221 36.166,85.116 35.885,85.116C35.78,85.116 35.671,85.132 35.56,85.163C35.449,85.195 35.313,85.255 35.153,85.345C34.993,85.435 34.851,85.591 34.728,85.814C34.605,86.036 34.514,86.316 34.456,86.652C34.393,87.085 34.362,87.821 34.362,88.861Z" style="fill:rgb(79,70,229);fill-rule:nonzero;"/>
                <path d="M39.495,92.845C39.495,92.7 39.501,92.607 39.515,92.564C39.529,92.521 39.567,92.466 39.629,92.4L41.932,89.833C42.772,88.888 43.192,88.003 43.192,87.179C43.192,86.644 43.052,86.185 42.773,85.802C42.494,85.419 42.098,85.228 41.586,85.228C41.235,85.228 40.911,85.335 40.614,85.55C40.317,85.765 40.1,86.064 39.963,86.446C39.987,86.439 40.039,86.435 40.122,86.435C40.321,86.435 40.476,86.497 40.587,86.622C40.699,86.747 40.754,86.894 40.754,87.062C40.754,87.277 40.685,87.436 40.546,87.539C40.408,87.643 40.27,87.695 40.133,87.695C40.079,87.695 40.015,87.689 39.943,87.677C39.871,87.665 39.778,87.604 39.664,87.492C39.551,87.381 39.495,87.226 39.495,87.027C39.495,86.468 39.706,85.966 40.13,85.521C40.554,85.075 41.09,84.853 41.739,84.853C42.473,84.853 43.081,85.071 43.564,85.506C44.046,85.942 44.288,86.499 44.288,87.179C44.288,87.417 44.251,87.645 44.179,87.862C44.107,88.078 44.023,88.271 43.927,88.439C43.831,88.607 43.655,88.825 43.397,89.095C43.139,89.364 42.907,89.595 42.7,89.786C42.493,89.978 42.157,90.277 41.692,90.683L40.42,91.919L42.582,91.919C43.286,91.919 43.664,91.888 43.719,91.825C43.797,91.712 43.885,91.357 43.983,90.759L44.288,90.759L43.948,92.845L39.495,92.845Z" style="fill:rgb(79,70,229);fill-rule:nonzero;"/>
                <path d="M45.231,90.864L45.231,90.495L48.916,84.864C48.979,84.767 49.059,84.72 49.157,84.724C49.247,84.724 49.301,84.741 49.321,84.777C49.34,84.812 49.35,84.898 49.35,85.034L49.35,90.495L50.551,90.495L50.551,90.864L49.35,90.864L49.35,91.907C49.35,92.138 49.398,92.29 49.494,92.364C49.589,92.439 49.844,92.476 50.258,92.476L50.51,92.476L50.51,92.845C50.182,92.821 49.639,92.81 48.881,92.81C48.127,92.81 47.586,92.821 47.258,92.845L47.258,92.476L47.51,92.476C47.924,92.476 48.18,92.44 48.278,92.367C48.375,92.295 48.424,92.142 48.424,91.907L48.424,90.864L45.231,90.864ZM45.571,90.495L48.495,90.495L48.495,86.019L45.571,90.495Z" style="fill:rgb(79,70,229);fill-rule:nonzero;"/>
            </g>
            <g transform="matrix(3.40093,0,0,1,-119.373,0)">
                <path d="M43,100L57,100" style="fill:none;stroke:rgb(79,70,229);stroke-width:0.63px;stroke-linecap:butt;"/>
            </g>
        </g>
        <g transform="matrix(0.0156677,0,0,0.0156677,194.519,1.52491)">
            <g transform="matrix(1.83762,0,0,1.83762,-18.4144,-52.2445)">
                <path d="M35.302,73.995L35.302,73.62C36.263,73.62 36.992,73.364 37.488,72.853C37.624,72.853 37.705,72.868 37.728,72.9C37.751,72.931 37.763,73.019 37.763,73.163L37.763,79.896C37.763,80.134 37.822,80.29 37.939,80.364C38.056,80.439 38.371,80.476 38.882,80.476L39.263,80.476L39.263,80.845C38.982,80.821 38.333,80.81 37.318,80.81C36.302,80.81 35.656,80.821 35.378,80.845L35.378,80.476L35.759,80.476C36.263,80.476 36.576,80.44 36.697,80.367C36.818,80.295 36.878,80.138 36.878,79.896L36.878,73.679C36.46,73.89 35.935,73.995 35.302,73.995Z" style="fill:rgb(79,70,229);fill-rule:nonzero;"/>
                <path d="M24.172,92.845C24.172,92.7 24.179,92.607 24.193,92.564C24.206,92.521 24.245,92.466 24.307,92.4L26.61,89.833C27.45,88.888 27.87,88.003 27.87,87.179C27.87,86.644 27.73,86.185 27.451,85.802C27.171,85.419 26.776,85.228 26.264,85.228C25.913,85.228 25.588,85.335 25.291,85.55C24.995,85.765 24.778,86.064 24.641,86.446C24.664,86.439 24.717,86.435 24.799,86.435C24.998,86.435 25.154,86.497 25.265,86.622C25.376,86.747 25.432,86.894 25.432,87.062C25.432,87.277 25.363,87.436 25.224,87.539C25.085,87.643 24.948,87.695 24.811,87.695C24.756,87.695 24.693,87.689 24.621,87.677C24.548,87.665 24.456,87.604 24.342,87.492C24.229,87.381 24.172,87.226 24.172,87.027C24.172,86.468 24.384,85.966 24.808,85.521C25.232,85.075 25.768,84.853 26.416,84.853C27.151,84.853 27.759,85.071 28.242,85.506C28.724,85.942 28.965,86.499 28.965,87.179C28.965,87.417 28.929,87.645 28.857,87.862C28.785,88.078 28.701,88.271 28.605,88.439C28.509,88.607 28.332,88.825 28.075,89.095C27.817,89.364 27.584,89.595 27.377,89.786C27.17,89.978 26.834,90.277 26.37,90.683L25.098,91.919L27.26,91.919C27.963,91.919 28.342,91.888 28.397,91.825C28.475,91.712 28.563,91.357 28.661,90.759L28.965,90.759L28.625,92.845L24.172,92.845Z" style="fill:rgb(79,70,229);fill-rule:nonzero;"/>
                <path d="M30.776,92.652C30.663,92.523 30.606,92.374 30.606,92.206C30.606,92.038 30.662,91.891 30.773,91.764C30.884,91.637 31.041,91.573 31.245,91.573C31.483,91.573 31.67,91.688 31.807,91.916C31.944,92.145 32.012,92.45 32.012,92.833C32.012,93.247 31.928,93.647 31.76,94.031C31.592,94.416 31.426,94.7 31.262,94.884C31.098,95.068 30.983,95.159 30.916,95.159C30.838,95.159 30.799,95.116 30.799,95.03C30.799,94.999 30.827,94.954 30.881,94.896C31.456,94.279 31.745,93.591 31.748,92.833C31.748,92.712 31.741,92.652 31.725,92.652L31.696,92.675C31.559,92.788 31.409,92.845 31.245,92.845C31.045,92.845 30.889,92.78 30.776,92.652Z" style="fill:rgb(79,70,229);fill-rule:nonzero;"/>
                <path d="M33.366,89.007C33.366,87.831 33.514,86.923 33.811,86.282C34.225,85.329 34.92,84.853 35.897,84.853C36.104,84.853 36.316,84.881 36.533,84.938C36.749,84.994 36.996,85.13 37.271,85.345C37.546,85.56 37.768,85.843 37.936,86.195C38.256,86.874 38.416,87.812 38.416,89.007C38.416,90.175 38.268,91.077 37.971,91.714C37.538,92.644 36.842,93.109 35.885,93.109C35.526,93.109 35.164,93.017 34.798,92.833C34.433,92.65 34.135,92.337 33.905,91.896C33.545,91.236 33.366,90.273 33.366,89.007ZM34.362,88.861C34.362,90.068 34.405,90.911 34.491,91.392C34.588,91.911 34.771,92.283 35.039,92.508C35.306,92.733 35.588,92.845 35.885,92.845C36.206,92.845 36.499,92.725 36.767,92.485C37.035,92.244 37.209,91.864 37.291,91.345C37.381,90.833 37.424,90.005 37.42,88.861C37.42,87.747 37.381,86.968 37.303,86.523C37.198,86.003 37.005,85.639 36.726,85.43C36.447,85.221 36.166,85.116 35.885,85.116C35.78,85.116 35.671,85.132 35.56,85.163C35.449,85.195 35.313,85.255 35.153,85.345C34.993,85.435 34.851,85.591 34.728,85.814C34.605,86.036 34.514,86.316 34.456,86.652C34.393,87.085 34.362,87.821 34.362,88.861Z" style="fill:rgb(79,70,229);fill-rule:nonzero;"/>
                <path d="M39.231,90.864L39.231,90.495L42.916,84.864C42.979,84.767 43.059,84.72 43.157,84.724C43.247,84.724 43.301,84.741 43.321,84.777C43.34,84.812 43.35,84.898 43.35,85.034L43.35,90.495L44.551,90.495L44.551,90.864L43.35,90.864L43.35,91.907C43.35,92.138 43.398,92.29 43.494,92.364C43.589,92.439 43.844,92.476 44.258,92.476L44.51,92.476L44.51,92.845C44.182,92.821 43.639,92.81 42.881,92.81C42.127,92.81 41.586,92.821 41.258,92.845L41.258,92.476L41.51,92.476C41.924,92.476 42.18,92.44 42.278,92.367C42.375,92.295 42.424,92.142 42.424,91.907L42.424,90.864L39.231,90.864ZM39.571,90.495L42.495,90.495L42.495,86.019L39.571,90.495Z" style="fill:rgb(79,70,229);fill-rule:nonzero;"/>
                <path d="M45.401,91.034C45.401,90.14 45.977,89.404 47.129,88.825C46.633,88.489 46.34,88.273 46.25,88.175C45.899,87.784 45.723,87.345 45.723,86.857C45.723,86.298 45.935,85.824 46.359,85.436C46.783,85.047 47.295,84.853 47.897,84.853C48.471,84.853 48.975,85.019 49.409,85.351C49.842,85.683 50.059,86.112 50.059,86.64C50.059,87.382 49.575,88.003 48.606,88.503C49.247,88.902 49.643,89.185 49.795,89.353C50.186,89.786 50.381,90.279 50.381,90.829C50.381,91.47 50.135,92.01 49.643,92.449C49.151,92.889 48.565,93.109 47.885,93.109C47.221,93.109 46.641,92.915 46.145,92.529C45.649,92.142 45.401,91.644 45.401,91.034ZM45.998,91.034C45.998,91.53 46.185,91.945 46.558,92.277C46.931,92.609 47.377,92.775 47.897,92.775C48.401,92.775 48.841,92.63 49.218,92.341C49.595,92.052 49.784,91.693 49.784,91.263C49.784,91.095 49.755,90.939 49.699,90.794C49.642,90.65 49.558,90.52 49.447,90.404C49.335,90.289 49.246,90.205 49.177,90.153C49.109,90.1 49.01,90.029 48.881,89.939L47.405,89.007C46.467,89.527 45.998,90.202 45.998,91.034ZM46.25,86.388C46.25,86.771 46.452,87.095 46.854,87.361L48.342,88.321C49.135,87.857 49.532,87.296 49.532,86.64C49.532,86.214 49.37,85.86 49.045,85.576C48.721,85.293 48.334,85.152 47.885,85.152C47.444,85.152 47.061,85.268 46.737,85.5C46.413,85.733 46.25,86.029 46.25,86.388Z" style="fill:rgb(79,70,229);fill-rule:nonzero;"/>
            </g>
            <g transform="matrix(3.40093,0,0,1,-119.373,0)">
                <path d="M43,100L57,100" style="fill:none;stroke:rgb(79,70,229);stroke-width:1.27px;stroke-linecap:butt;"/>
            </g>
        </g>
        <g transform="matrix(0.0156677,0,0,0.0156677,197.65,3.08741)">
            <g transform="matrix(1.83762,0,0,1.83762,-18.4144,-52.2445)">
                <path d="M35.302,73.995L35.302,73.62C36.263,73.62 36.992,73.364 37.488,72.853C37.624,72.853 37.705,72.868 37.728,72.9C37.751,72.931 37.763,73.019 37.763,73.163L37.763,79.896C37.763,80.134 37.822,80.29 37.939,80.364C38.056,80.439 38.371,80.476 38.882,80.476L39.263,80.476L39.263,80.845C38.982,80.821 38.333,80.81 37.318,80.81C36.302,80.81 35.656,80.821 35.378,80.845L35.378,80.476L35.759,80.476C36.263,80.476 36.576,80.44 36.697,80.367C36.818,80.295 36.878,80.138 36.878,79.896L36.878,73.679C36.46,73.89 35.935,73.995 35.302,73.995Z" style="fill:rgb(79,70,229);fill-rule:nonzero;"/>
                <path d="M23.909,90.864L23.909,90.495L27.594,84.864C27.657,84.767 27.737,84.72 27.834,84.724C27.924,84.724 27.979,84.741 27.998,84.777C28.018,84.812 28.028,84.898 28.028,85.034L28.028,90.495L29.229,90.495L29.229,90.864L28.028,90.864L28.028,91.907C28.028,92.138 28.076,92.29 28.171,92.364C28.267,92.439 28.522,92.476 28.936,92.476L29.188,92.476L29.188,92.845C28.86,92.821 28.317,92.81 27.559,92.81C26.805,92.81 26.264,92.821 25.936,92.845L25.936,92.476L26.188,92.476C26.602,92.476 26.858,92.44 26.956,92.367C27.053,92.295 27.102,92.142 27.102,91.907L27.102,90.864L23.909,90.864ZM24.248,90.495L27.172,90.495L27.172,86.019L24.248,90.495Z" style="fill:rgb(79,70,229);fill-rule:nonzero;"/>
                <path d="M30.776,92.652C30.663,92.523 30.606,92.374 30.606,92.206C30.606,92.038 30.662,91.891 30.773,91.764C30.884,91.637 31.041,91.573 31.245,91.573C31.483,91.573 31.67,91.688 31.807,91.916C31.944,92.145 32.012,92.45 32.012,92.833C32.012,93.247 31.928,93.647 31.76,94.031C31.592,94.416 31.426,94.7 31.262,94.884C31.098,95.068 30.983,95.159 30.916,95.159C30.838,95.159 30.799,95.116 30.799,95.03C30.799,94.999 30.827,94.954 30.881,94.896C31.456,94.279 31.745,93.591 31.748,92.833C31.748,92.712 31.741,92.652 31.725,92.652L31.696,92.675C31.559,92.788 31.409,92.845 31.245,92.845C31.045,92.845 30.889,92.78 30.776,92.652Z" style="fill:rgb(79,70,229);fill-rule:nonzero;"/>
                <path d="M33.366,89.007C33.366,87.831 33.514,86.923 33.811,86.282C34.225,85.329 34.92,84.853 35.897,84.853C36.104,84.853 36.316,84.881 36.533,84.938C36.749,84.994 36.996,85.13 37.271,85.345C37.546,85.56 37.768,85.843 37.936,86.195C38.256,86.874 38.416,87.812 38.416,89.007C38.416,90.175 38.268,91.077 37.971,91.714C37.538,92.644 36.842,93.109 35.885,93.109C35.526,93.109 35.164,93.017 34.798,92.833C34.433,92.65 34.135,92.337 33.905,91.896C33.545,91.236 33.366,90.273 33.366,89.007ZM34.362,88.861C34.362,90.068 34.405,90.911 34.491,91.392C34.588,91.911 34.771,92.283 35.039,92.508C35.306,92.733 35.588,92.845 35.885,92.845C36.206,92.845 36.499,92.725 36.767,92.485C37.035,92.244 37.209,91.864 37.291,91.345C37.381,90.833 37.424,90.005 37.42,88.861C37.42,87.747 37.381,86.968 37.303,86.523C37.198,86.003 37.005,85.639 36.726,85.43C36.447,85.221 36.166,85.116 35.885,85.116C35.78,85.116 35.671,85.132 35.56,85.163C35.449,85.195 35.313,85.255 35.153,85.345C34.993,85.435 34.851,85.591 34.728,85.814C34.605,86.036 34.514,86.316 34.456,86.652C34.393,87.085 34.362,87.821 34.362,88.861Z" style="fill:rgb(79,70,229);fill-rule:nonzero;"/>
                <path d="M39.401,87.554C39.401,87.128 39.463,86.77 39.588,86.479C39.713,86.188 39.907,85.898 40.168,85.609C40.649,85.105 41.237,84.853 41.932,84.853C42.229,84.853 42.509,84.915 42.773,85.04C43.037,85.165 43.294,85.369 43.546,85.653C43.798,85.936 44,86.356 44.153,86.912C44.305,87.469 44.381,88.13 44.381,88.896C44.381,90.134 44.081,91.146 43.482,91.931C42.882,92.716 42.178,93.109 41.37,93.109C40.858,93.109 40.452,92.992 40.151,92.76C39.85,92.528 39.7,92.212 39.7,91.814C39.7,91.607 39.758,91.459 39.875,91.371C39.993,91.283 40.118,91.239 40.25,91.239C40.395,91.239 40.524,91.287 40.637,91.383C40.75,91.479 40.807,91.614 40.807,91.79C40.807,91.935 40.761,92.063 40.669,92.174C40.578,92.285 40.414,92.341 40.18,92.341C40.411,92.63 40.803,92.775 41.358,92.775C41.557,92.775 41.756,92.729 41.956,92.637C42.155,92.545 42.363,92.387 42.58,92.162C42.796,91.938 42.971,91.589 43.104,91.116C43.237,90.644 43.303,90.075 43.303,89.411L43.303,89.03C42.983,89.831 42.483,90.232 41.803,90.232C41.131,90.232 40.563,89.974 40.098,89.458C39.633,88.943 39.401,88.308 39.401,87.554ZM40.479,87.566C40.479,88.359 40.551,88.902 40.696,89.195C40.942,89.698 41.315,89.95 41.815,89.95C42.303,89.95 42.669,89.733 42.914,89.297C43.158,88.862 43.28,88.361 43.28,87.794C43.28,87.009 43.215,86.445 43.086,86.101C42.848,85.468 42.464,85.152 41.935,85.152C41.406,85.152 41.004,85.404 40.731,85.907C40.563,86.204 40.479,86.757 40.479,87.566Z" style="fill:rgb(79,70,229);fill-rule:nonzero;"/>
                <path d="M45.401,89.054C45.401,87.796 45.721,86.781 46.362,86.01C47.002,85.238 47.735,84.853 48.559,84.853C49.039,84.853 49.414,84.975 49.681,85.219C49.949,85.463 50.082,85.773 50.082,86.148C50.082,86.355 50.022,86.503 49.901,86.593C49.78,86.683 49.657,86.728 49.532,86.728C49.387,86.728 49.258,86.679 49.145,86.581C49.032,86.484 48.975,86.347 48.975,86.171C48.975,85.812 49.196,85.632 49.637,85.632C49.43,85.312 49.079,85.152 48.582,85.152C48.43,85.152 48.276,85.174 48.12,85.219C47.963,85.264 47.784,85.361 47.581,85.509C47.377,85.657 47.198,85.849 47.041,86.083C46.885,86.318 46.752,86.655 46.643,87.097C46.534,87.538 46.479,88.046 46.479,88.62L46.479,88.907C46.807,88.114 47.307,87.719 47.979,87.721C48.651,87.723 49.219,87.98 49.684,88.491C50.149,89.003 50.381,89.638 50.381,90.396C50.381,91.173 50.139,91.82 49.655,92.335C49.17,92.851 48.588,93.109 47.909,93.109C47.604,93.109 47.314,93.045 47.039,92.918C46.763,92.791 46.498,92.583 46.242,92.294C45.986,92.005 45.782,91.583 45.629,91.029C45.477,90.474 45.401,89.816 45.401,89.054ZM46.502,90.132C46.502,90.917 46.575,91.497 46.719,91.872C46.743,91.935 46.781,92.009 46.833,92.095C46.886,92.181 46.958,92.279 47.05,92.391C47.142,92.502 47.264,92.594 47.416,92.666C47.569,92.738 47.733,92.775 47.909,92.775C48.444,92.775 48.84,92.515 49.098,91.995C49.235,91.706 49.303,91.169 49.303,90.384C49.303,89.583 49.231,89.036 49.086,88.743C48.84,88.247 48.467,87.999 47.967,87.999C47.631,87.999 47.347,88.114 47.115,88.345C46.882,88.575 46.722,88.845 46.634,89.154C46.546,89.462 46.502,89.788 46.502,90.132Z" style="fill:rgb(79,70,229);fill-rule:nonzero;"/>
            </g>
            <g transform="matrix(3.40093,0,0,1,-119.373,0)">
                <path d="M43,100L57,100" style="fill:none;stroke:rgb(79,70,229);stroke-width:1.27px;stroke-linecap:butt;"/>
            </g>
        </g>
    </g>
</svg>
