<?xml version="1.0" encoding="UTF-8" standalone="no"?>
<!DOCTYPE svg PUBLIC "-//W3C//DTD SVG 1.1//EN" "http://www.w3.org/Graphics/SVG/1.1/DTD/svg11.dtd">
<svg width="100%" height="100%" viewBox="0 0 176 176" version="1.1" xmlns="http://www.w3.org/2000/svg" xmlns:xlink="http://www.w3.org/1999/xlink" xml:space="preserve" xmlns:serif="http://www.serif.com/" style="fill-rule:evenodd;clip-rule:evenodd;stroke-linecap:round;stroke-linejoin:round;stroke-miterlimit:1.5;">
    <g transform="matrix(1,0,0,1,-171,-548)">
        <g transform="matrix(1,0,0,1,-192,0)">
            <g transform="matrix(1,0,0,1,191,1)">
                <circle cx="260" cy="635" r="82" style="fill:rgb(75,75,75);stroke:black;stroke-width:12px;"/>
            </g>
            <g transform="matrix(0.47561,0,0,0.47561,327.341,333.988)">
                <circle cx="260" cy="635" r="82" style="fill:rgb(156,156,157);stroke:black;stroke-width:16.82px;"/>
            </g>
            <g>
                <g>
                    <g transform="matrix(1,1.15116e-08,1.15116e-08,0.121951,-6.37744e-06,486.439)">
                        <path d="M451,554L451,718" style="fill:none;stroke:black;stroke-width:11.23px;"/>
                    </g>
                    <g transform="matrix(1,1.15116e-08,1.15116e-08,0.121951,-6.37744e-06,630.439)">
                        <path d="M451,554L451,718" style="fill:none;stroke:black;stroke-width:11.23px;"/>
                    </g>
                </g>
                <g transform="matrix(0.866025,0.5,-0.5,0.866025,378.423,-140.292)">
                    <g transform="matrix(1,1.15116e-08,1.15116e-08,0.121951,-6.37744e-06,486.439)">
                        <path d="M451,554L451,718" style="fill:none;stroke:black;stroke-width:11.23px;"/>
                    </g>
                    <g transform="matrix(1,1.15116e-08,1.15116e-08,0.121951,-6.37744e-06,630.439)">
                        <path d="M451,554L451,718" style="fill:none;stroke:black;stroke-width:11.23px;"/>
                    </g>
                </g>
                <g transform="matrix(0.5,0.866025,-0.866025,0.5,776.292,-72.5775)">
                    <g transform="matrix(1,1.15116e-08,1.15116e-08,0.121951,-6.37744e-06,486.439)">
                        <path d="M451,554L451,718" style="fill:none;stroke:black;stroke-width:11.23px;"/>
                    </g>
                    <g transform="matrix(1,1.15116e-08,1.15116e-08,0.121951,-6.37744e-06,630.439)">
                        <path d="M451,554L451,718" style="fill:none;stroke:black;stroke-width:11.23px;"/>
                    </g>
                </g>
                <g transform="matrix(2.77556e-16,1,-1,2.77556e-16,1087,185)">
                    <g transform="matrix(1,1.15116e-08,1.15116e-08,0.121951,-6.37744e-06,486.439)">
                        <path d="M451,554L451,718" style="fill:none;stroke:black;stroke-width:11.23px;"/>
                    </g>
                    <g transform="matrix(1,1.15116e-08,1.15116e-08,0.121951,-6.37744e-06,630.439)">
                        <path d="M451,554L451,718" style="fill:none;stroke:black;stroke-width:11.23px;"/>
                    </g>
                </g>
                <g transform="matrix(-0.5,0.866025,-0.866025,-0.5,1227.29,563.423)">
                    <g transform="matrix(1,1.15116e-08,1.15116e-08,0.121951,-6.37744e-06,486.439)">
                        <path d="M451,554L451,718" style="fill:none;stroke:black;stroke-width:11.23px;"/>
                    </g>
                    <g transform="matrix(1,1.15116e-08,1.15116e-08,0.121951,-6.37744e-06,630.439)">
                        <path d="M451,554L451,718" style="fill:none;stroke:black;stroke-width:11.23px;"/>
                    </g>
                </g>
                <g transform="matrix(-0.866025,0.5,-0.5,-0.866025,1159.58,961.292)">
                    <g transform="matrix(1,1.15116e-08,1.15116e-08,0.121951,-6.37744e-06,486.439)">
                        <path d="M451,554L451,718" style="fill:none;stroke:black;stroke-width:11.23px;"/>
                    </g>
                    <g transform="matrix(1,1.15116e-08,1.15116e-08,0.121951,-6.37744e-06,630.439)">
                        <path d="M451,554L451,718" style="fill:none;stroke:black;stroke-width:11.23px;"/>
                    </g>
                </g>
            </g>
            <g transform="matrix(1,0,0,1,0,1)">
                <g transform="matrix(-0.809108,-0.58766,0.58766,-0.809108,442.161,1415.23)">
                    <circle cx="451" cy="619" r="5"/>
                </g>
                <g transform="matrix(-0.809108,-0.58766,0.58766,-0.809108,462.098,1415.27)">
                    <circle cx="451" cy="619" r="5"/>
                </g>
                <g transform="matrix(-0.809108,-0.58766,0.58766,-0.809108,468.309,1396.19)">
                    <circle cx="451" cy="619" r="5"/>
                </g>
                <g transform="matrix(-0.809108,-0.58766,0.58766,-0.809108,435.984,1396.23)">
                    <circle cx="451" cy="619" r="5"/>
                </g>
                <g transform="matrix(-0.809108,-0.58766,0.58766,-0.809108,452.161,1384.48)">
                    <circle cx="451" cy="619" r="5"/>
                </g>
            </g>
        </g>
    </g>
</svg>
